<svg width="51" height="51" viewBox="0 0 120 120" fill="none" xmlns="http://www.w3.org/2000/svg">
<path d="M57.9 0.075C58 -0.025 58.1 -0.025 58.2 0.075C58.6 0.575 63.3 7.675 63.3 12.275C63.3 16.875 60.3 20.475 59.3 21.175C59.2 21.275 58.9 22.175 58.8 22.475C58.8 22.575 58.5 22.675 58.5 22.675V22.375C58.5 21.875 58.4 9.075 58.4 8.975C58.4 8.875 58.3 8.875 58.3 8.975C58.3 9.575 57.7 20.775 57.7 20.975C57.7 21.075 57.7 21.075 57.6 21.075C57.3 20.875 52.9 17.375 52.9 11.975C52.9 6.475 57.7 0.275 57.9 0.075Z" fill="#256E46"/>
<path d="M29.2001 7.775C29.2001 7.575 29.3001 7.475 29.5001 7.575C30.1001 7.875 37.7001 11.675 40.0001 15.575C42.3001 19.575 41.5001 24.175 40.9001 25.275C40.9001 25.375 41.0001 26.375 41.1001 26.675C41.1001 26.775 40.9001 26.975 40.9001 26.975L40.7001 26.675C40.4001 26.175 34.0001 15.175 34.0001 15.175C33.9001 15.075 33.8001 15.175 33.9001 15.275C34.2001 15.775 39.2001 25.875 39.3001 25.975C39.4001 26.075 39.3001 26.075 39.3001 26.075C39.0001 26.075 33.4001 25.175 30.7001 20.475C28.1001 15.875 29.2001 8.075 29.2001 7.775Z" fill="#90C74B"/>
<path d="M7.7 29.375C7.6 29.175 7.7 29.075 7.9 29.075C8.6 28.975 17 28.375 21 30.675C25 32.975 26.7 37.375 26.7 38.575C26.7 38.675 27.4 39.475 27.6 39.675C27.7 39.675 27.6 40.075 27.6 40.075L27.3 39.975C26.8 39.675 15.7 33.475 15.6 33.475C15.5 33.475 15.4 33.575 15.5 33.575C16 33.875 25.5 39.975 25.6 40.075C25.7 40.175 25.7 40.175 25.7 40.175C25.4 40.375 20.1 42.375 15.5 39.775C10.9 37.175 7.8 29.675 7.7 29.375Z" fill="#90C74B"/>
<path d="M0.100024 58.375C2.44156e-05 58.175 2.44156e-05 58.175 0.100024 57.975C0.600024 57.575 7.70003 52.875 12.3 52.875C16.9 52.875 20.5 55.875 21.2 56.875C21.3 56.975 22.2 57.275 22.5 57.375C22.6 57.375 22.7 57.675 22.7 57.675H22.4C21.8 57.675 9.00002 57.875 9.00002 57.875C8.90002 57.875 8.90002 57.975 9.00002 57.975C9.60003 57.975 20.8 58.575 21 58.575C21.1 58.575 21.1 58.575 21.1 58.675C20.9 58.975 17.4 63.375 12 63.375C6.50002 63.375 0.300024 58.475 0.100024 58.375Z" fill="#90C74B"/>
<path d="M7.80002 86.975C7.60002 86.975 7.50002 86.875 7.60002 86.675C7.90002 86.075 11.7 78.475 15.6 76.175C19.6 73.875 24.2 74.675 25.3 75.275C25.4 75.275 26.4 75.175 26.7 75.075C26.8 75.075 27 75.275 27 75.275L26.7 75.475C26.2 75.775 15.2 82.175 15.2 82.175C15.1 82.275 15.2 82.375 15.3 82.275C15.8 81.975 25.9 76.975 26 76.875C26.1 76.775 26.1 76.875 26.1 76.875C26.1 77.175 25.2 82.775 20.5 85.475C15.9 88.175 8.10002 86.975 7.80002 86.975Z" fill="#90C74B"/>
<path d="M29.4 108.475C29.2 108.575 29.1 108.475 29.1 108.275C29 107.575 28.4 99.175 30.7 95.175C33 91.175 37.4 89.475 38.6 89.475C38.7 89.475 39.5 88.775 39.7 88.575C39.8 88.475 40.1 88.575 40.1 88.575L40 88.875C39.7 89.375 33.5 100.475 33.5 100.575C33.5 100.675 33.6 100.775 33.6 100.675C33.9 100.175 40 90.675 40.1 90.575C40.2 90.475 40.2 90.475 40.2 90.475C40.3 90.775 42.4 96.075 39.8 100.675C37 105.475 29.7 108.375 29.4 108.475Z" fill="#256E46"/>
<path d="M58.4 116.075C58.3 116.275 58.2 116.275 58.1 116.075C57.7 115.575 53 108.475 53 103.875C53 99.275 56 95.675 57 94.975C57.1 94.875 57.4 93.975 57.5 93.675C57.5 93.575 57.8 93.475 57.8 93.475V93.775C57.8 94.275 57.9 107.075 57.9 107.175C57.9 107.275 58 107.275 58 107.175C58 106.575 58.6 95.375 58.6 95.175C58.6 95.075 58.6 95.075 58.7 95.075C59 95.275 63.4 98.775 63.4 104.175C63.4 109.675 58.5 115.875 58.4 116.075Z" fill="#256E46"/>
<path d="M87.0001 108.375C87.0001 108.575 86.9001 108.675 86.7001 108.575C86.1001 108.275 78.5001 104.475 76.2001 100.575C73.9001 96.575 74.7001 91.975 75.3001 90.875C75.3001 90.775 75.2001 89.775 75.1001 89.475C75.1001 89.375 75.3001 89.175 75.3001 89.175L75.5001 89.475C75.8001 89.975 82.2001 100.975 82.2001 100.975C82.3001 101.075 82.4001 100.975 82.3001 100.875C82.0001 100.375 77.0001 90.275 76.9001 90.175C76.8001 90.075 76.9001 90.075 76.9001 90.075C77.2001 90.075 82.8001 90.975 85.5001 95.675C88.2001 100.375 87.0001 108.175 87.0001 108.375Z" fill="#256E46"/>
<path d="M108.5 86.775C108.6 86.975 108.5 87.075 108.3 87.075C107.6 87.175 99.2 87.775 95.2 85.475C91.2 83.175 89.5 78.775 89.5 77.575C89.5 77.475 88.8 76.675 88.6 76.475C88.5 76.375 88.6 76.075 88.6 76.075L88.9 76.175C89.4 76.475 100.5 82.675 100.6 82.675C100.7 82.675 100.8 82.575 100.7 82.575C100.2 82.275 90.7 76.175 90.6 76.075C90.5 75.975 90.5 75.975 90.5 75.975C90.8 75.875 96.1 73.775 100.7 76.375C105.5 79.275 108.4 86.575 108.5 86.775Z" fill="#256E46"/>
<path d="M116.1 57.875C116.3 57.975 116.3 58.075 116.1 58.175C115.6 58.575 108.5 63.275 103.9 63.275C99.3 63.275 95.7 60.275 95 59.275C94.9 59.175 94 58.875 93.7 58.775C93.6 58.775 93.5 58.475 93.5 58.475H93.8C94.3 58.475 107.1 58.375 107.2 58.375C107.3 58.375 107.3 58.275 107.2 58.275C106.6 58.275 95.4 57.675 95.2 57.675C95.1 57.675 95.1 57.675 95.1 57.575C95.3 57.275 98.8 52.875 104.2 52.875C109.7 52.875 115.9 57.675 116.1 57.875Z" fill="#256E46"/>
<path d="M108.4 29.175C108.6 29.175 108.7 29.275 108.6 29.475C108.3 30.075 104.5 37.675 100.6 39.975C96.6001 42.275 92.0001 41.475 90.9001 40.875C90.8001 40.875 89.8001 40.975 89.5001 41.075C89.4001 41.075 89.2001 40.875 89.2001 40.875L89.5001 40.675C90.0001 40.375 101 33.975 101 33.975C101.1 33.875 101 33.775 100.9 33.875C100.4 34.175 90.3001 39.175 90.2001 39.275C90.1001 39.375 90.1001 39.275 90.1001 39.275C90.1001 38.975 91.0001 33.375 95.7001 30.675C100.4 28.075 108.2 29.175 108.4 29.175Z" fill="#256E46"/>
<path d="M86.8 7.675C87 7.575 87.1 7.675 87.1 7.875C87.2 8.575 87.8 16.975 85.5 20.975C83.2 24.975 78.8 26.675 77.6 26.675C77.5 26.675 76.7 27.375 76.5 27.575C76.5 27.675 76.1 27.575 76.1 27.575L76.2 27.275C76.5 26.775 82.7 15.675 82.7 15.575C82.7 15.475 82.6 15.375 82.6 15.475C82.3 15.975 76.2 25.475 76.1 25.575C76 25.675 76 25.675 76 25.675C75.9 25.375 73.8 20.075 76.4 15.475C79.3 10.775 86.6 7.775 86.8 7.675Z" fill="#256E46"/>
</svg>
